<?xml version="1.0" encoding="utf-8"?>
<!DOCTYPE svg PUBLIC "-//W3C//DTD SVG 1.1//EN" "http://www.w3.org/Graphics/SVG/1.1/DTD/svg11.dtd">
<svg  version="1.1" id="Layer_1" xmlns="http://www.w3.org/2000/svg" xmlns:xlink="http://www.w3.org/1999/xlink" width="630.377" height="266"
	 viewBox="0 0 630.377 266" overflow="visible" enable-background="new 0 0 630.377 266" xml:space="preserve">
<line fill="none" stroke="#006B33" stroke-width="3.75" stroke-miterlimit="10" x1="0" y1="215.333" x2="275.333" y2="215.333"/>
<line fill="none" stroke="#006B33" stroke-width="3.75" stroke-miterlimit="10" x1="137.667" y1="0" x2="137.667" y2="266"/>
<line fill="none" stroke="#006B33" stroke-width="3.75" stroke-miterlimit="10" x1="258.712" y1="244.7" x2="121.045" y2="6.255"/>
<line fill="none" stroke="#006B33" stroke-width="3.75" stroke-miterlimit="10" x1="3.395" y1="233.145" x2="233.757" y2="100.145"/>
<line fill="none" stroke="#006B33" stroke-width="3.75" stroke-miterlimit="10" x1="154.788" y1="5.966" x2="17.122" y2="244.411"/>
<line fill="none" stroke="#006B33" stroke-width="3.75" stroke-miterlimit="10" x1="272.439" y1="232.854" x2="42.077" y2="99.855"/>
<path fill="#FF4082" stroke="#000000" stroke-width="1.8594" stroke-miterlimit="10" d="M143.086,35.045L143.086,35.045v-0.01
	c-0.002-1.438-0.575-2.815-1.592-3.83c-1.018-1.014-2.396-1.584-3.833-1.583c-1.438,0.003-2.815,0.574-3.831,1.59
	c-1.014,1.017-1.585,2.395-1.585,3.833c0,1.436,0.571,2.813,1.585,3.83c1.016,1.017,2.393,1.59,3.831,1.59
	c1.437,0.001,2.815-0.569,3.833-1.582c1.017-1.016,1.589-2.392,1.592-3.828V35.045z"/>
<path fill="#FF4082" stroke="#000000" stroke-width="1.8594" stroke-miterlimit="10" d="M39.33,215.333L39.33,215.333v-0.01
	c-0.002-1.438-0.575-2.814-1.592-3.829c-1.018-1.015-2.396-1.585-3.833-1.583c-1.438,0.002-2.815,0.573-3.831,1.589
	c-1.014,1.017-1.585,2.396-1.585,3.833c0,1.436,0.571,2.814,1.585,3.831c1.016,1.017,2.393,1.589,3.831,1.589
	c1.437,0.002,2.815-0.568,3.833-1.582c1.017-1.016,1.589-2.391,1.592-3.828V215.333z"/>
<path fill="#FF4082" stroke="#000000" stroke-width="1.8594" stroke-miterlimit="10" d="M143.083,155.533L143.083,155.533v-0.01
	c-0.002-1.438-0.575-2.814-1.592-3.829c-1.018-1.015-2.396-1.584-3.833-1.583c-1.438,0.002-2.815,0.573-3.831,1.589
	c-1.014,1.018-1.585,2.396-1.585,3.833c0,1.436,0.571,2.813,1.585,3.831c1.016,1.017,2.393,1.589,3.831,1.589
	c1.437,0.001,2.815-0.568,3.833-1.582c1.017-1.016,1.589-2.392,1.592-3.828V155.533z"/>
<path fill="#FF4082" stroke="#000000" stroke-width="1.8594" stroke-miterlimit="10" d="M247.345,215.042L247.345,215.042v-0.01
	c-0.002-1.438-0.575-2.814-1.592-3.829c-1.018-1.015-2.396-1.585-3.833-1.583c-1.438,0.002-2.815,0.573-3.831,1.589
	c-1.014,1.017-1.585,2.396-1.585,3.833c0,1.436,0.571,2.814,1.585,3.831c1.016,1.017,2.393,1.589,3.831,1.589
	c1.437,0.002,2.815-0.568,3.833-1.582c1.017-1.016,1.589-2.391,1.592-3.828V215.042z"/>
<line fill="none" stroke="#365DD9" stroke-width="3.75" stroke-miterlimit="10" x1="615.712" y1="244.7" x2="478.045" y2="6.255"/>
<line fill="none" stroke="#365DD9" stroke-width="3.75" stroke-miterlimit="10" x1="360.395" y1="233.145" x2="590.757" y2="100.145"/>
<line fill="none" stroke="#365DD9" stroke-width="3.75" stroke-miterlimit="10" x1="511.788" y1="5.966" x2="374.122" y2="244.411"/>
<line fill="none" stroke="#365DD9" stroke-width="3.75" stroke-miterlimit="10" x1="629.439" y1="232.854" x2="399.077" y2="99.855"/>
<path fill="#FF4082" stroke="#000000" stroke-width="1.8594" stroke-miterlimit="10" d="M500.087,35.045L500.087,35.045v-0.01
	c-0.002-1.438-0.576-2.815-1.592-3.83c-1.018-1.014-2.397-1.584-3.833-1.583c-1.438,0.003-2.814,0.574-3.83,1.59
	c-1.016,1.017-1.587,2.395-1.587,3.833c0,1.436,0.571,2.813,1.587,3.83c1.016,1.017,2.393,1.59,3.83,1.59
	c1.436,0.001,2.815-0.569,3.833-1.582c1.016-1.016,1.59-2.392,1.592-3.828V35.045z"/>
<path fill="#FF4082" stroke="#000000" stroke-width="1.8594" stroke-miterlimit="10" d="M448.374,125.188L448.374,125.188v-0.01
	c-0.002-1.438-0.574-2.814-1.592-3.83c-1.018-1.014-2.395-1.585-3.833-1.582c-1.438,0.002-2.815,0.573-3.831,1.589
	c-1.013,1.016-1.584,2.396-1.584,3.833c0,1.436,0.571,2.812,1.584,3.831c1.016,1.016,2.393,1.589,3.831,1.589
	s2.815-0.568,3.833-1.582c1.018-1.016,1.59-2.393,1.592-3.828V125.188z"/>
<path fill="#FF4082" stroke="#000000" stroke-width="1.8594" stroke-miterlimit="10" d="M396.329,215.333L396.329,215.333v-0.01
	c-0.002-1.438-0.574-2.814-1.592-3.829s-2.395-1.585-3.833-1.583s-2.815,0.573-3.831,1.589c-1.013,1.017-1.584,2.396-1.584,3.833
	c0,1.436,0.571,2.814,1.584,3.831c1.016,1.017,2.393,1.589,3.831,1.589c1.438,0.002,2.815-0.568,3.833-1.582
	c1.018-1.016,1.59-2.391,1.592-3.828V215.333z"/>
<path fill="#FF4082" stroke="#000000" stroke-width="1.8594" stroke-miterlimit="10" d="M500.083,155.533L500.083,155.533v-0.01
	c-0.002-1.438-0.574-2.814-1.592-3.829s-2.395-1.584-3.833-1.583c-1.438,0.002-2.815,0.573-3.831,1.589
	c-1.013,1.018-1.584,2.396-1.584,3.833c0,1.436,0.571,2.813,1.584,3.831c1.016,1.017,2.393,1.589,3.831,1.589
	c1.438,0.001,2.815-0.568,3.833-1.582c1.018-1.016,1.59-2.392,1.592-3.828V155.533z"/>
<path fill="#FF4082" stroke="#000000" stroke-width="1.8594" stroke-miterlimit="10" d="M604.345,215.042L604.345,215.042v-0.01
	c-0.002-1.438-0.575-2.814-1.592-3.829c-1.018-1.015-2.396-1.585-3.833-1.583c-1.438,0.002-2.814,0.573-3.83,1.589
	c-1.015,1.017-1.586,2.396-1.586,3.833c0,1.436,0.571,2.814,1.586,3.831c1.016,1.017,2.393,1.589,3.83,1.589
	c1.437,0.002,2.815-0.568,3.833-1.582c1.017-1.016,1.59-2.391,1.592-3.828V215.042z"/>
<path fill="#FF4082" stroke="#000000" stroke-width="1.8594" stroke-miterlimit="10" d="M552.466,125.188L552.466,125.188v-0.01
	c-0.002-1.438-0.576-2.814-1.592-3.83c-1.018-1.014-2.397-1.585-3.833-1.582c-1.438,0.002-2.814,0.573-3.83,1.589
	s-1.587,2.396-1.587,3.833c0,1.436,0.571,2.812,1.587,3.831c1.016,1.016,2.393,1.589,3.83,1.589c1.436,0,2.815-0.568,3.833-1.582
	c1.016-1.016,1.59-2.393,1.592-3.828V125.188z"/>
</svg>
